<?xml version="1.0" encoding="utf-8"?>
<!-- Generator: Adobe Illustrator 24.0.2, SVG Export Plug-In . SVG Version: 6.00 Build 0)  -->
<svg version="1.1" id="Layer_1" xmlns="http://www.w3.org/2000/svg" xmlns:xlink="http://www.w3.org/1999/xlink" x="0px" y="0px"
	 viewBox="0 0 311.3 114.1" style="enable-background:new 0 0 311.3 114.1;" xml:space="preserve">
<style type="text/css">
	.st0{fill:#96C11E;}
	.st1{fill:#FCCE90;}
	.st2{fill:#8DD2F2;}
</style>

<g class="f1 letter">
<path class="st0" d="M57.1,47.6c2.1-3.2,3.1-6.8,3.1-10.8v-4.3c0-1.6-0.3-2.9-1-3.8c-0.7-0.9-1.4-1.5-2.2-1.9c-1-0.5-2-0.7-3.2-0.8
	H24.6c-1.5,0-2.6,0.5-3.5,1.5c-0.8,1-1.2,2.3-1.2,4c0,1.7,0.4,3.1,1.2,4.3c0.8,1.2,1.9,1.8,3.5,1.8h20c0.7,0,1.2,0.3,1.5,0.8
	c0.3,0.5,0.3,1.1,0.1,1.8c-0.5,1.7-1.5,3.3-3,4.8c-1.5,1.5-3.2,2.8-5.3,4c-2,1.2-4.3,2.2-6.7,3.1c-1.7,0.6-3.3,1-5,1.4h26
	C54,51.7,55.7,49.7,57.1,47.6z"/>
<path class="st0" d="M80,26.5c-1.2-0.8-2.7-1.2-4.8-1.2c-2,0-3.6,0.4-4.7,1.2c-1.1,0.8-1.7,2-1.7,3.5v9h-4c-1.5,0-2.6,0.5-3.5,1.5
	c-0.8,1-1.2,2.4-1.2,4c0,1.7,0.4,3.1,1.2,4.2c0.8,1.2,1.9,1.7,3.5,1.7h4v2.8h13V30C81.8,28.5,81.2,27.3,80,26.5z"/>
<path class="st0" d="M152,38.5c-1.2-0.8-2.7-1.2-4.8-1.2c-2,0-3.6,0.4-4.7,1.2c-1.1,0.8-1.7,2-1.7,3.5v16.2h-13.3
	c-1.5,0-2.6,0.5-3.5,1.5c-0.8,1-1.2,2.4-1.2,4c0,0.6,0.1,1.1,0.2,1.6h30.8V42C153.8,40.5,153.2,39.3,152,38.5z"/>
<path class="st0" d="M103.8,40c-1.2-0.8-2.7-1.2-4.8-1.2s-3.6,0.4-4.7,1.2c-1.1,0.8-1.7,2-1.7,3.5v21.9h13V43.5
	C105.5,41.9,104.9,40.8,103.8,40z"/>
</g>

<g class="f2 letter">
<path class="st1" d="M224,26.5c-1.2-0.8-2.7-1.2-4.8-1.2c-2,0-3.6,0.4-4.7,1.2c-1.1,0.8-1.7,2-1.7,3.5v9h-4c-1.5,0-2.6,0.5-3.5,1.5
	c-0.8,1-1.2,2.4-1.2,4c0,1.7,0.4,3.1,1.2,4.2c0.8,1.2,1.9,1.7,3.5,1.7h4v2.8h13V30C225.8,28.5,225.2,27.3,224,26.5z"/>
<path class="st1" d="M201.1,47.6c2.1-3.2,3.1-6.8,3.1-10.8v-4.3c0-1.6-0.3-2.9-1-3.8c-0.7-0.9-1.4-1.5-2.2-1.9c-1-0.5-2-0.7-3.2-0.8
	h-29.2c-1.5,0-2.6,0.5-3.5,1.5c-0.8,1-1.2,2.3-1.2,4c0,1.7,0.4,3.1,1.2,4.3c0.8,1.2,1.9,1.8,3.5,1.8h20c0.7,0,1.2,0.3,1.5,0.8
	c0.3,0.5,0.3,1.1,0.1,1.8c-0.5,1.7-1.5,3.3-3,4.8c-1.5,1.5-3.2,2.8-5.3,4c-2,1.2-4.3,2.2-6.7,3.1c-1.7,0.6-3.3,1-5,1.4h26
	C198,51.7,199.7,49.7,201.1,47.6z"/>
<path class="st1" d="M297.8,42c0-1.5-0.6-2.7-1.8-3.5c-1.2-0.8-2.7-1.2-4.8-1.2c-2,0-3.6,0.4-4.7,1.2c-1.1,0.8-1.7,2-1.7,3.5v16.2
	h-13.3c-1.5,0-2.6,0.5-3.5,1.5c-0.8,1-1.2,2.4-1.2,4c0,0.6,0.1,1.1,0.2,1.6h30.8V42z"/>
<path class="st1" d="M247.8,40c-1.2-0.8-2.7-1.2-4.8-1.2s-3.6,0.4-4.7,1.2c-1.1,0.8-1.7,2-1.7,3.5v21.9h13V43.5
	C249.5,41.9,248.9,40.8,247.8,40z"/></g>

<g class="f3 letter">
<path class="st0" d="M23.8,53.8c-1.5,0.2-2.5,0.9-3.2,1.9c-0.6,1-0.8,2.4-0.6,4.1c0.3,1.6,1,2.9,2.1,3.8c1.1,0.9,2.4,1.2,4,0.9
	C30,64,34,63,38,61.6c4-1.4,7.7-3.3,11-5.7c1.1-0.8,2.1-1.6,3.1-2.5h-26C25.3,53.5,24.6,53.7,23.8,53.8z"/>
<path class="st0" d="M68.9,66.7c0,1.5,0.6,2.6,1.7,3.5c1.1,0.8,2.7,1.2,4.7,1.2c2,0,3.6-0.4,4.8-1.2c1.2-0.8,1.8-2,1.8-3.5V53.4h-13
	V66.7z"/>
<path class="st0" d="M78.6,81.5H38.5c-0.5,0-1-0.2-1.4-0.4c-0.4-0.2-0.7-0.5-1-0.8c-0.3-0.4-0.4-0.9-0.4-1.5v-4.8
	c0-1.5-0.6-2.7-1.8-3.5s-2.7-1.2-4.8-1.2c-2,0-3.6,0.4-4.7,1.2c-1.1,0.8-1.7,2-1.7,3.5v12.6c0,1.6,0.3,2.9,1,3.8
	c0.7,0.9,1.4,1.5,2.2,1.9c0.9,0.5,2,0.7,3.2,0.8h49.3c1.2,0,2.1-0.5,2.8-1.5c0.7-1,1.1-2.4,1.1-4.2c0-1.8-0.4-3.2-1.2-4.2
	C80.6,82,79.7,81.5,78.6,81.5z"/>
<path class="st0" d="M92.6,91.9c0,1.6,0.3,2.9,1,3.8c0.7,0.9,1.4,1.5,2.2,1.9c0.9,0.5,2,0.7,3.2,0.8l32.8-1.1c1.5,0,2.7-0.6,3.5-1.7
	c0.8-1.2,1.2-2.6,1.2-4.2s-0.4-3-1.2-3.9c-0.8-0.9-2-1.4-3.5-1.4l-23.5,0.9c-0.5,0-1-0.2-1.4-0.4c-0.4-0.2-0.7-0.5-1-0.8
	c-0.3-0.4-0.4-0.9-0.4-1.5V65.4h-13V91.9z"/>
<path class="st0" d="M124,68c0.8,1.2,1.9,1.7,3.5,1.7h13.4v30.6c0,1.5,0.6,2.6,1.7,3.5c1.1,0.8,2.7,1.2,4.7,1.2c2,0,3.6-0.4,4.8-1.2
	c1.2-0.8,1.8-2,1.8-3.5v-35H123C123.2,66.4,123.5,67.3,124,68z"/></g>

<g class="f4 letter">

<path class="st1" d="M167.8,53.8c-1.5,0.2-2.5,0.9-3.2,1.9c-0.6,1-0.8,2.4-0.6,4.1c0.3,1.6,1,2.9,2.1,3.8c1.1,0.9,2.4,1.2,4,0.9
	c3.9-0.5,7.9-1.5,12-3c4-1.4,7.7-3.3,11-5.7c1.1-0.8,2.1-1.6,3.1-2.5h-26C169.3,53.5,168.6,53.7,167.8,53.8z"/>
<path class="st1" d="M212.9,66.7c0,1.5,0.6,2.6,1.7,3.5c1.1,0.8,2.7,1.2,4.7,1.2c2,0,3.6-0.4,4.8-1.2c1.2-0.8,1.8-2,1.8-3.5V53.4
	h-13V66.7z"/>
<path class="st1" d="M222.6,81.5h-40.1c-0.5,0-1-0.2-1.4-0.4c-0.4-0.2-0.7-0.5-1-0.8c-0.3-0.4-0.4-0.9-0.4-1.5v-4.8
	c0-1.5-0.6-2.7-1.8-3.5s-2.7-1.2-4.8-1.2c-2,0-3.6,0.4-4.7,1.2c-1.1,0.8-1.7,2-1.7,3.5v12.6c0,1.6,0.3,2.9,1,3.8
	c0.7,0.9,1.4,1.5,2.2,1.9c0.9,0.5,2,0.7,3.2,0.8h49.3c1.2,0,2.1-0.5,2.8-1.5c0.7-1,1.1-2.4,1.1-4.2c0-1.8-0.4-3.2-1.2-4.2
	C224.6,82,223.7,81.5,222.6,81.5z"/>
<path class="st1" d="M267,65.4c0.2,1,0.5,1.9,1,2.6c0.8,1.2,1.9,1.7,3.5,1.7h13.4v30.6c0,1.5,0.6,2.6,1.7,3.5
	c1.1,0.8,2.7,1.2,4.7,1.2c2,0,3.6-0.4,4.8-1.2c1.2-0.8,1.8-2,1.8-3.5v-35H267z"/>
<path class="st1" d="M236.6,91.9c0,1.6,0.3,2.9,1,3.8c0.7,0.9,1.4,1.5,2.2,1.9c0.9,0.5,2,0.7,3.2,0.8l32.8-1.1
	c1.5,0,2.7-0.6,3.5-1.7c0.8-1.2,1.2-2.6,1.2-4.2s-0.4-3-1.2-3.9c-0.8-0.9-2-1.4-3.5-1.4l-23.5,0.9c-0.5,0-1-0.2-1.4-0.4
	c-0.4-0.2-0.7-0.5-1-0.8c-0.3-0.4-0.4-0.9-0.4-1.5V65.4h-13V91.9z"/></g>
<g>
	<circle class="st2" cx="20.4" cy="21.6" r="9.8"/>
	<circle class="st2" cx="37.2" cy="21.6" r="9.8"/>
	<circle class="st2" cx="53.9" cy="21.6" r="9.8"/>
</g>
<g>
	<circle class="st2" cx="165" cy="21.6" r="9.8"/>
	<circle class="st2" cx="181.8" cy="21.6" r="9.8"/>
	<circle class="st2" cx="198.5" cy="21.6" r="9.8"/>
</g>
</svg>
